<svg aria-hidden="true" xmlns="http://www.w3.org/2000/svg" x="0px" y="0px" width="50" height="50" viewBox="0 0 172 172" style=" fill:#000000;">
            <g fill="none" fill-rule="nonzero" stroke="none" stroke-width="1" stroke-linecap="butt" stroke-linejoin="miter" stroke-miterlimit="10" stroke-dasharray="" stroke-dashoffset="0" font-family="none" font-weight="none" font-size="none" text-anchor="none" style="mix-blend-mode: normal">
                <path d="M0,172v-172h172v172z" fill="none"></path>
                <g>
                <path d="M12.9,145.125c-4.1495,0 -7.525,-3.3755 -7.525,-7.525v-103.2c0,-4.1495 3.3755,-7.525 7.525,-7.525h146.2c4.1495,0 7.525,3.3755 7.525,7.525v103.2c0,4.1495 -3.3755,7.525 -7.525,7.525z" fill="#000000"></path>
                <path d="M159.1,27.95c3.5561,0 6.45,2.8939 6.45,6.45v103.2c0,3.5561 -2.8939,6.45 -6.45,6.45h-146.2c-3.5561,0 -6.45,-2.8939 -6.45,-6.45v-103.2c0,-3.5561 2.8939,-6.45 6.45,-6.45h146.2M159.1,25.8h-146.2c-4.74935,0 -8.6,3.85065 -8.6,8.6v103.2c0,4.74935 3.85065,8.6 8.6,8.6h146.2c4.74935,0 8.6,-3.85065 8.6,-8.6v-103.2c0,-4.74935 -3.85065,-8.6 -8.6,-8.6z" fill="#ffffff"></path>
                <path d="M56.03975,98.8441l-2.0812,10.8059h-8.80855l10.12435,-47.3h10.88975l9.0859,47.3h-8.80855l-2.0124,-10.8059zM63.89585,92.45l-1.82535,-10.6597c-0.4816,-2.8767 -1.1051,-7.6497 -1.52435,-10.7371h-0.2107c-0.4816,3.15835 -1.1782,8.0023 -1.6598,10.7371l-2.03605,10.6597zM81.7,63.2573c2.5284,-0.559 5.93615,-0.9073 9.3525,-0.9073c5.3234,0 9.5589,0.76755 12.49365,3.63135c2.72835,2.44455 3.956,6.3597 3.956,10.33935c0,5.1041 -1.5007,8.73545 -3.88935,11.31975c-2.8681,3.1433 -7.43685,4.54295 -11.1929,4.54295c-0.61275,0 -1.505,0 -2.1199,-0.07095v17.53755h-8.6zM90.3,84.70785c0.473,0.0688 1.2986,0.0688 1.8447,0.0688c4.5021,0 6.4844,-3.28305 6.4844,-7.6841c0,-4.1237 -1.64045,-7.33795 -5.80285,-7.33795c-0.8213,0 -1.98445,0.13975 -2.52625,0.3526zM113.95,62.35h8.6v47.3h-8.6z" fill="#ffffff"></path>
                </g>
            </g>
            </svg>